<svg width="64" height="64" viewBox="0 0 64 64" fill="none" xmlns="http://www.w3.org/2000/svg">
  <rect width="64" height="64" rx="16" fill="#433B9D"/>
  <path d="M32 16.5c-3.2-2.4-7-3-10.2-1.6-3.7 1.6-5.8 5.5-5.8 10.3 0 4.2 1.1 8.6 2.6 12.9 1 2.9 1.6 5.8 2 8.2.4 2.4 2 3.7 3.6 3.5 1.7-.2 2.6-1.8 3-4.1.5-2.7 1-5.2 2.1-6.7.7-1 1.7-1.5 2.7-1.5s2 .5 2.7 1.5c1.1 1.5 1.6 4 2.1 6.7.4 2.3 1.3 3.9 3 4.1 1.6.2 3.2-1.1 3.6-3.5.4-2.4 1-5.3 2-8.2 1.5-4.3 2.6-8.7 2.6-12.9 0-4.8-2.1-8.7-5.8-10.3C39 13.5 35.2 14.1 32 16.5Z" fill="#fff"/>
  <circle cx="45" cy="22" r="3.5" fill="#ED1C24"/>
</svg>
